# xmcd CD database file
#
# Track frame offsets:
#	150
#	11784
#	24258
#	37836
#	49812
#	59593
#	71638
#	83820
#	95919
#	105889
#	118616
#	128826
#	138459
#	148260
#	159236
#	171820
#	183197
#	193455
#	205661
#	216970
#	227251
#	238384
#	249870
#	261161
#
# Disc length: 3626 seconds
#
# Revision: 2
# Processed by: cddbd v1.5.2PL0 Copyright (c) Steve Scherf et al.
# Submitted via: CDex 1.77
#
DISCID=540e2818
DTITLE=Hank Thompson - Seven classic albums cd3
DYEAR=2014
DGENRE=Country
TTITLE0=Hang your head in shame
TTITLE1=String of pearls
TTITLE2=The gypsy
TTITLE3=You'll be the one
TTITLE4=Don't be that way
TTITLE5=Old Napoleon
TTITLE6=I don't want to know
TTITLE7=Proserity special
TTITLE8=Someone can steal you from me
TTITLE9=Don't look now (but your broken heart is showing)
TTITLE10=Across the alley of the Alamo
TTITLE11=Don't get around much anymore
TTITLE12=Beaumont rag
TTITLE13=Headin' down the wrong highway
TTITLE14=After all the things i've done
TTITLE15=Woodchopper's ball
TTITLE16=Drivin' nails in my coffin
TTITLE17=Klishama klingo
TTITLE18=Bartenders polka
TTITLE19=Bubbles in my beer
TTITLE20=Make room in your heart (for a memory)
TTITLE21=Summit ridge drive
TTITLE22=I wouldn't miss it for the world
TTITLE23=Lawdy what a gal
EXTD=YEAR: 2014
EXTT0=
EXTT1=
EXTT2=
EXTT3=
EXTT4=
EXTT5=
EXTT6=
EXTT7=
EXTT8=
EXTT9=
EXTT10=
EXTT11=
EXTT12=
EXTT13=
EXTT14=
EXTT15=
EXTT16=
EXTT17=
EXTT18=
EXTT19=
EXTT20=
EXTT21=
EXTT22=
EXTT23=
PLAYORDER=
